<svg xmlns="http://www.w3.org/2000/svg" viewBox="0 0 512 512" role="img" aria-label="RavenBill 2.0 heraldic raven emblem">
  <defs>
    <linearGradient id="bg" x1="0" y1="0" x2="1" y2="1">
      <stop offset="0" stop-color="#10263b"/>
      <stop offset=".52" stop-color="#071522"/>
      <stop offset="1" stop-color="#020910"/>
    </linearGradient>
    <linearGradient id="wing" x1="0" y1="0" x2="1" y2="1">
      <stop offset="0" stop-color="#ffffff"/>
      <stop offset=".62" stop-color="#eaf4ff"/>
      <stop offset="1" stop-color="#a9d1ff"/>
    </linearGradient>
    <linearGradient id="accent" x1="0" y1="0" x2="1" y2="1">
      <stop offset="0" stop-color="#55b1ff"/>
      <stop offset="1" stop-color="#0876ef"/>
    </linearGradient>
    <filter id="shadow" x="-30%" y="-30%" width="160%" height="160%">
      <feDropShadow dx="0" dy="12" stdDeviation="13" flood-color="#000814" flood-opacity=".6"/>
    </filter>
  </defs>
  <rect width="512" height="512" rx="108" fill="url(#bg)"/>
  <rect x="18" y="18" width="476" height="476" rx="92" fill="none" stroke="#183a58" stroke-width="3"/>
  <g filter="url(#shadow)">
    <path fill="url(#wing)" d="M245 219c-38 16-77 30-116 40-13 3-26 0-36-9-15-13-24-33-29-60l-11-67c23 12 42 29 55 49 8 12 13 25 16 39 16-36 26-77 30-123 34 30 55 68 62 114l29 17z"/>
    <path fill="url(#wing)" d="M267 219c38 16 77 30 116 40 13 3 26 0 36-9 15-13 24-33 29-60l11-67c-23 12-42 29-55 49-8 12-13 25-16 39-16-36-26-77-30-123-34 30-55 68-62 114l-29 17z"/>
    <path fill="url(#wing)" d="M114 249c17 10 38 13 62 9-7 22-8 46-4 72-26-9-47-28-58-56v-25zM398 249c-17 10-38 13-62 9 7 22 8 46 4 72 26-9 47-28 58-56v-25z"/>
    <path fill="url(#wing)" d="M98 282c15 12 34 19 56 21-4 23-2 46 6 69-29-10-50-30-62-60v-30zM414 282c-15 12-34 19-56 21 4 23 2 46-6 69 29-10 50-30 62-60v-30z"/>
    <path fill="url(#wing)" d="M112 334c15 8 31 12 50 12 0 23 5 43 15 61-27-7-49-23-65-49v-24zM400 334c-15 8-31 12-50 12 0 23-5 43-15 61 27-7 49-23 65-49v-24z"/>
    <path fill="url(#wing)" d="M146 384c13 4 27 5 42 2 4 19 12 35 24 49-25-2-47-12-66-31v-20zM366 384c-13 4-27 5-42 2-4 19-12 35-24 49 25-2 47-12 66-31v-20z"/>
    <path fill="url(#wing)" d="M256 166c-25 0-43 9-57 27l-18 25 27-8c-5 15-4 32 4 50 8 20 21 38 38 54l6 6 6-6c17-16 30-34 38-54 8-18 9-35 4-50l27 8-18-25c-14-18-32-27-57-27z"/>
    <path fill="url(#wing)" d="M254 153c-8-13-20-22-35-27 19-6 39-3 59 8 10 6 20 14 28 25l-36 8c-7-7-12-11-16-14z"/>
    <path fill="#07111f" d="M259 160c12-10 27-15 45-14-11 7-19 15-24 25l-21-11z"/>
    <path fill="url(#accent)" d="M240 176l17-13 19 9-17 11z"/>
    <circle cx="272" cy="158" r="4.5" fill="#ffffff"/>
    <path fill="url(#wing)" d="M235 324l21 29 21-29 14 27-20 34-15-18-15 18-20-34 14-27z"/>
    <path fill="url(#wing)" d="M256 382l24 38-24 54-24-54 24-38z"/>
  </g>
</svg>