<svg xmlns="http://www.w3.org/2000/svg" viewBox="0 0 512 512" role="img" aria-label="RavenBill 2.0 blue raven">
  <defs>
    <linearGradient id="bg" x1="0" y1="0" x2="1" y2="1">
      <stop offset="0" stop-color="#071727"/>
      <stop offset="1" stop-color="#020912"/>
    </linearGradient>
    <linearGradient id="wing" x1="0" y1="0" x2="1" y2="1">
      <stop offset="0" stop-color="#42a6ff"/>
      <stop offset="0.46" stop-color="#0d7fff"/>
      <stop offset="1" stop-color="#0649a6"/>
    </linearGradient>
  </defs>
  <rect width="512" height="512" rx="112" fill="url(#bg)"/>
  <circle cx="256" cy="256" r="184" fill="none" stroke="#0b76ee" stroke-width="12"/>
  <circle cx="256" cy="256" r="166" fill="none" stroke="#163c69" stroke-width="3"/>
  <path d="M118 389c18-91 58-170 122-229 43-40 95-58 151-47-27 7-49 19-66 38 38-4 72 9 101 39-32-7-60-3-84 11 27 7 49 23 64 47-41-9-78-1-106 25 30-1 56 9 77 29-44 1-83 19-109 53-32 42-73 70-122 84-12 4-21 1-28-10z" fill="url(#wing)"/>
  <path d="M220 171c48-43 107-58 164-36-27 5-49 16-66 31 43-1 80 14 108 44-43-10-82-4-115 19-25 18-47 43-66 75-10-44-18-88-25-133z" fill="#03101e"/>
  <path d="M329 188c33-20 72-22 109-7l-60 27 79 13-87 19c-8-22-22-40-41-52z" fill="#c6ddf1"/>
  <path d="M372 207l84 14-86 19c6-12 6-23 2-33z" fill="#ecf6ff" opacity=".72"/>
  <circle cx="344" cy="184" r="12" fill="#eef9ff"/>
  <circle cx="347" cy="183" r="6" fill="#03101e"/>
  <circle cx="349" cy="180" r="2.3" fill="#fff"/>
  <path d="M151 365c37-19 70-47 96-82-8 44-31 83-68 112m-18-73c31-15 60-38 83-68-8 37-29 70-61 94m-1-78c29-12 57-31 80-57-9 32-28 60-56 82" fill="none" stroke="#74bbff" stroke-width="10" stroke-linecap="round" opacity=".72"/>
  <path d="M158 398c49-14 91-43 125-84-15 51-50 93-99 118m31-18c43-19 77-49 101-88-8 46-34 86-73 114" fill="none" stroke="#0a68d8" stroke-width="16" stroke-linecap="round"/>
  <path d="M128 420c44-1 86-13 124-35-26 33-60 57-101 70" fill="none" stroke="#0759bf" stroke-width="18" stroke-linecap="round"/>
</svg>