<svg xmlns="http://www.w3.org/2000/svg" viewBox="0 0 64 64" role="img" aria-label="RavenBill raven logo"><path fill="#ffffff" d="M50.8 13.6c-8.9.6-16.7 4.8-22 11.8-3.5 4.7-5.4 10-5.5 15.4-4.5-3.2-7.8-8-9.2-13.5-1.7 8.6 1.6 17.2 8.8 22.4 8.9 6.4 21.1 4.2 27-4.8-5.2 1.8-10.5 1.5-15.2-.9 7.9-.7 14.2-4.8 17.9-11.8-5.3 1.4-10.3.7-14.5-1.8 7.3-1.8 12.5-6.7 15.3-14.1-1 .4-1.8.8-2.6 1.2z"/><path fill="#b9dcff" d="M38.1 21.9c5-2.6 10.3-2.2 15.2 1.2-5.2-.3-9.4.7-12.7 3.4.3-2.1-.5-3.6-2.5-4.6z"/><circle cx="42.9" cy="22.8" r="1.7" fill="#0b5fc9"/></svg>