<svg xmlns="http://www.w3.org/2000/svg" viewBox="0 0 512 512" role="img" aria-label="Blue raven emblem">
  <defs>
    <linearGradient id="bg" x1="0" y1="0" x2="1" y2="1">
      <stop offset="0" stop-color="#06182a"/>
      <stop offset="1" stop-color="#020a13"/>
    </linearGradient>
    <linearGradient id="blue" x1="0" y1="0" x2="1" y2="1">
      <stop offset="0" stop-color="#42a4ff"/>
      <stop offset=".45" stop-color="#087cff"/>
      <stop offset="1" stop-color="#064da9"/>
    </linearGradient>
    <linearGradient id="feather" x1="0" y1="0" x2="1" y2="0">
      <stop offset="0" stop-color="#092e67"/>
      <stop offset="1" stop-color="#168cff"/>
    </linearGradient>
  </defs>
  <rect width="512" height="512" rx="104" fill="url(#bg)"/>
  <circle cx="256" cy="248" r="194" fill="none" stroke="#0c74ed" stroke-width="12" opacity=".95"/>
  <circle cx="256" cy="248" r="177" fill="none" stroke="#143b70" stroke-width="3"/>
  <path d="M119 393c11-89 47-179 117-241 45-40 104-59 159-42-28 4-52 17-69 37 42-6 78 10 100 43-27-8-54-8-78 0 25 8 45 24 59 48-38-12-76-5-104 18 28-2 55 7 75 26-42 0-80 17-105 49-31 39-69 65-117 78-14 4-26 0-37-16z" fill="url(#blue)"/>
  <path d="M222 167c45-35 104-49 159-28-24 3-43 11-58 25 43-3 82 12 111 42-45-12-85-7-119 17-26 18-48 42-66 72-12-42-21-85-27-128z" fill="#03101e"/>
  <path d="M331 183c33-18 70-20 106-5l-58 25 76 14-84 17c-8-21-21-38-40-51z" fill="#a8c9e9"/>
  <path d="M370 204l85 13-84 17c5-11 5-20-1-30z" fill="#d9e8f5" opacity=".72"/>
  <circle cx="343" cy="180" r="11" fill="#dff3ff"/>
  <circle cx="346" cy="179" r="5" fill="#03101e"/>
  <circle cx="348" cy="176" r="2" fill="#fff"/>
  <path d="M150 372c33-16 66-42 91-75-9 42-33 81-70 111m-19-74c30-14 59-37 82-66-10 36-31 68-63 92m-4-80c29-13 56-32 79-58-9 31-28 59-55 81" fill="none" stroke="#73baff" stroke-width="10" stroke-linecap="round" opacity=".72"/>
  <path d="M161 398c48-14 89-42 122-82-14 50-49 91-97 115m30-18c42-19 76-48 100-87-8 45-33 84-72 112" fill="none" stroke="url(#feather)" stroke-width="16" stroke-linecap="round"/>
  <path d="M130 414c43-1 84-12 121-34-25 32-58 55-99 68" fill="none" stroke="#075fc8" stroke-width="18" stroke-linecap="round"/>
</svg>