<svg xmlns="http://www.w3.org/2000/svg" viewBox="0 0 512 512" role="img" aria-label="RavenBill 2.0 heraldic raven">
  <rect width="512" height="512" rx="104" fill="#040d17"/>
  <rect x="10" y="10" width="492" height="492" rx="96" fill="none" stroke="#1b344b" stroke-width="3"/>
  <g fill="#f8fbff">
    <path d="M256 142c-25 0-45 9-61 28l-23 29 33-9c-8 25-5 53 8 83 10 23 24 44 43 62 19-18 33-39 43-62 13-30 16-58 8-83l33 9-23-29c-16-19-36-28-61-28z"/>
    <path d="M250 142c-14-21-35-34-61-39 24-8 49-4 75 11 14 8 27 19 39 35l-49 11c-2-6-3-12-4-18z"/>
    <path d="M262 150c17-13 37-19 61-17-15 8-27 20-35 34l-26-17z"/>
    <path d="M239 194c-47 21-96 36-147 45-17 3-32-1-44-13-18-18-29-44-33-80L7 74c32 14 58 35 76 62 11 16 18 34 21 52 18-49 28-101 30-157 47 39 75 88 84 149l21 14z"/>
    <path d="M273 194c47 21 96 36 147 45 17 3 32-1 44-13 18-18 29-44 33-80l8-72c-32 14-58 35-76 62-11 16-18 34-21 52-18-49-28-101-30-157-47 39-75 88-84 149l-21 14z"/>
    <path d="M94 237c22 15 50 21 81 16-9 31-9 64-1 99-35-10-63-33-80-68v-47zM418 237c-22 15-50 21-81 16 9 31 9 64 1 99 35-10 63-33 80-68v-47z"/>
    <path d="M80 285c20 17 46 28 76 32-5 31-2 63 9 95-39-13-68-40-85-82v-45zM432 285c-20 17-46 28-76 32 5 31 2 63-9 95 39-13 68-40 85-82v-45z"/>
    <path d="M101 354c20 12 42 17 67 17 1 31 9 60 23 85-38-8-68-30-90-65v-37zM411 354c-20 12-42 17-67 17-1 31-9 60-23 85 38-8 68-30 90-65v-37z"/>
    <path d="M225 336l31 39 31-39 20 36-28 42-23-22-23 22-28-42 20-36z"/>
    <path d="M256 399l34 47-34 61-34-61 34-47z"/>
  </g>
  <circle cx="279" cy="150" r="6" fill="#040d17"/>
  <circle cx="281" cy="148" r="2.5" fill="#4aa5ff"/>
</svg>